<?xml version="1.0" standalone="no"?>
<!DOCTYPE svg PUBLIC "-//W3C//DTD SVG 20010904//EN"
 "http://www.w3.org/TR/2001/REC-SVG-20010904/DTD/svg10.dtd">
<svg version="1.0" xmlns="http://www.w3.org/2000/svg"
 width="288.000000pt" height="288.000000pt" viewBox="0 0 288.000000 288.000000"
 preserveAspectRatio="xMidYMid meet">
<metadata>
Created by potrace 1.14, written by Peter Selinger 2001-2017
</metadata>
<g transform="translate(0.000000,288.000000) scale(0.100000,-0.100000)"
fill="#000000" stroke="none">
<path d="M1495 2739 c-9 -14 -18 -524 -11 -555 5 -18 13 -24 35 -24 29 0 59
19 253 163 126 93 143 117 115 161 -16 23 -280 231 -324 254 -27 15 -60 15
-68 1z"/>
<path d="M1199 2605 c-425 -90 -764 -373 -923 -773 -19 -48 -37 -98 -40 -112
-3 -14 -13 -56 -22 -95 -25 -102 -25 -381 -1 -495 27 -127 84 -276 116 -301
34 -27 60 -21 147 33 146 91 144 85 100 220 -19 56 -39 134 -44 171 -64 482
251 926 724 1021 115 24 120 31 119 184 -1 99 -4 126 -18 139 -20 20 -83 23
-158 8z"/>
<path d="M1957 2350 c-102 -76 -108 -83 -105 -113 3 -27 14 -39 88 -88 151
-99 254 -219 331 -384 95 -203 111 -473 39 -670 -49 -135 -45 -145 72 -217 51
-31 102 -58 113 -60 31 -7 73 19 89 55 43 93 76 203 93 312 10 64 10 315 0
380 -37 232 -153 477 -304 644 -92 103 -251 221 -295 221 -7 0 -62 -36 -121
-80z"/>
<path d="M643 820 c-31 -13 -154 -90 -180 -113 -50 -44 -22 -101 115 -235 158
-154 370 -265 607 -318 112 -25 339 -27 470 -4 241 42 456 147 624 305 142
135 178 193 146 241 -18 28 -195 134 -223 134 -15 0 -43 -21 -80 -61 -198
-211 -450 -316 -727 -303 -252 12 -446 101 -629 290 -73 75 -83 80 -123 64z"/>
</g>
</svg>
