<svg id="Ebene_1" data-name="Ebene 1" xmlns="http://www.w3.org/2000/svg" viewBox="0 0 640.53 640.53"><defs><style>.cls-1{fill:#777;}.cls-2{fill:#4c4c4c;}.cls-3{fill:#d9d9d9;}</style></defs><path class="cls-1" d="M453.15,105.29c-12.06,8.65-24,17.45-36.08,26.07a13.22,13.22,0,0,0,1.44,22.4c63.68,34.16,106.06,102,106.06,180.18,0,28.94-5.36,55.16-16.05,79.68a18,18,0,0,0,7.05,22.73l32.59,19.76a17.87,17.87,0,0,0,25.47-7.6c16.28-35,24.58-72.85,24.58-114.57,0-94.92-50.86-186.91-126.8-230.64C463.12,98.53,460.92,99.71,453.15,105.29Z"/><path class="cls-2" d="M126.3,435.64A16.39,16.39,0,0,0,132.79,415,202.64,202.64,0,0,1,116,333.94c0-103.31,75.92-188.82,175.55-202a16.38,16.38,0,0,0,14.25-16.18q0-20.59,0-41.14a16.37,16.37,0,0,0-18.2-16.29C149.68,74.36,42.32,191.83,42.32,333.94c0,42.2,8.75,80.9,25.48,116.39a16.37,16.37,0,0,0,23.41,6.88C101.94,450.57,115.73,442,126.3,435.64Z"/><path class="cls-3" d="M499.37,459a16.59,16.59,0,0,0-21.47,3.93c-37.24,46.5-93.65,74.94-158,74.94-65,0-120.69-27.28-157.72-74.28a16.58,16.58,0,0,0-21.62-4c-10.62,6.42-24.24,14.69-34.8,21.1a16.55,16.55,0,0,0-4.59,24.2C151.78,570.65,230.35,611.5,319.89,611.5s168.15-41,218.79-106.72a16.56,16.56,0,0,0-4.3-24C524.11,474.22,510.47,465.65,499.37,459Z"/><path class="cls-3" d="M413,80.65,354.11,35.54c-6.51-5.49-19.44-11-22.82-.75-1.21,30.78-2.16,113.46-1.93,118.17,1.62,13.76,18,4.86,27.22-1.93l57.64-42.6C426.44,99.4,422.74,88.13,413,80.65Z"/></svg>